<svg xmlns="http://www.w3.org/2000/svg" xmlns:xlink="http://www.w3.org/1999/xlink" version="1.1" style="enable-background:new -153 -46 652 652;" xml:space="preserve" width="593.9122814844973" height="215.3391812343669"><rect id="backgroundrect" width="100%" height="100%" x="0" y="0" fill="none" stroke="none"/>
<style type="text/css">
	.st0{fill:#002C76;}
	.st1{clip-path:url(#SVGID_2_);fill:#FFFFFF;}
	.st2{clip-path:url(#SVGID_4_);fill:url(#SVGID_5_);}
	.st3{clip-path:url(#SVGID_7_);fill:#FED200;}
	.st4{clip-path:url(#SVGID_9_);fill:url(#SVGID_10_);}
	.st5{clip-path:url(#SVGID_12_);fill:url(#SVGID_13_);}
</style>






<g class="currentLayer" style=""><title>Layer 1</title><rect x="0" y="0" class="st0" width="600" height="213.3000030517578" id="svg_1"/><g id="svg_2" class="">
	<defs transform="translate(-0.6181297302246094,-0.0941619873046875) translate(-29.239765167236328,-128.65496826171875) translate(163.15789794921875,-40.35087585449219) ">
		<rect id="SVGID_1_" x="-133.3000030517578" y="169.10000610351562" width="600" height="213.3000030517578"/>
	</defs>
	<clipPath id="SVGID_2_" transform="translate(-0.6181297302246094,-0.0941619873046875) translate(-29.239765167236328,-128.65496826171875) translate(163.15789794921875,-40.35087585449219) ">
		<use xlink:href="#SVGID_1_" style="overflow:visible;" id="svg_3"/>
	</clipPath>
	<path class="st1" d="M140.10000305175782,124.39999389648438 c-3,0.9 -5.6,1.3 -7.8,1.3 c-5.9,0 -7.1,-5.2 -7.1,-9.5 c0,-6.7 2.4,-10.2 7.3,-10.2 c2.4,0 4,0.6000000000000003 4,0.6000000000000003 c0.1,0.1 4.3,1.7000000000000002 4.3,1.7000000000000002 l0.1,-5.6 l-0.6000000000000003,-0.2 c-1.5,-0.6000000000000003 -5.4,-2.1 -9.5,-2.1 c-8.7,0 -14.2,6.2 -14.2,15.8 c0,9.1 5.4,15.3 13.4,15.3 c3.5,0 6.7,-0.8 11.5,-2.8 l0.8,-0.30000000000000016 l-1.3,-4.2 L140.10000305175782,124.39999389648438 z" id="svg_4"/>
	<path class="st1" d="M39.70000305175782,108.79999389648435 c3.8,-1.6 5.6,-4.4 5.6,-8.9 c0,-4.4 -2.1,-7.8 -5.7,-9.3 c-2.6,-1.1 -5,-1.3 -12.2,-1.3 h-15.4 v4.4 c0,0 3.7,0.6000000000000003 4.9,0.7000000000000003 V130.89999389648438 h12.3 c6,0 8.6,-0.4 11.3,-1.6 c4.1,-1.9 6.5,-5.7 6.5,-10.3 C46.80000305175781,113.59999389648436 44.40000305175781,110.29999389648435 39.70000305175782,108.79999389648435 M25.400003051757807,94.69999389648439 h1.7000000000000002 h0.7000000000000003 c3.2,0 5.7,0 7.3,1.3 c1,0.9 1.6,2.3 1.6,4.1 c0,4.1 -1.3,5.8 -6.1,6.2 c0,0 -3.5,0.4 -3.5,0.4 c0,0 -1.6,2.7 -1.6,2.7 V94.69999389648439 zM35.40000305175781,123.89999389648438 c-1.9,1.5 -4.8,1.6 -8.4,1.6 h-1.5 v-13.7 c0.1,0 0.2,0 0.2,0 h2.8 c3.1,0 5.6,0.1 7.2,1.4 c1.3,1.1 2.1,2.9 2.1,5.1 C37.80000305175781,120.69999389648439 36.90000305175781,122.79999389648435 35.40000305175781,123.89999389648438 " id="svg_5"/>
	<path class="st1" d="M283.3000030517578,108.79999389648435 c3.8,-1.6 5.6,-4.4 5.6,-8.9 c0,-4.4 -2.1,-7.8 -5.8,-9.3 c-2.6,-1.1 -5,-1.3 -12.2,-1.3 h-15.4 v4.4 c0,0 3.7,0.6000000000000003 4.9,0.7000000000000003 V130.89999389648438 h12.3 c6,0 8.5,-0.4 11.3,-1.6 c4.1,-1.9 6.5,-5.7 6.5,-10.3 C290.40000305175784,113.59999389648436 288.0000030517578,110.29999389648435 283.3000030517578,108.79999389648435 M269.0000030517578,94.69999389648439 h1.7000000000000002 h0.7000000000000003 c3.2,0 5.7,0 7.2,1.3 c1,0.9 1.6,2.3 1.6,4.1 c0,4.1 -1.3,5.8 -6.2,6.2 l-3.5,0.4 c0,0 -1.6,2.7 -1.6,2.7 V94.69999389648439 zM278.90000305175784,123.89999389648438 c-1.9,1.5 -4.8,1.6 -8.4,1.6 h-1.5 v-13.7 c0,0 0.2,0 0.2,0 h2.8 c3.1,0 5.6,0.1 7.2,1.4 c1.3,1.1 2.1,2.9 2.1,5.1 C281.3000030517578,120.69999389648439 280.5000030517578,122.79999389648435 278.90000305175784,123.89999389648438 " id="svg_6"/>
	<path class="st1" d="M104.20000305175782,100.39999389648438 c-2.5,0 -5.7,0.9 -9.4,2.4 c-0.1,-0.7000000000000003 -0.2,-2.4 -0.2,-2.4 l-12.5,1.6 v4.4 h4.6 V130.89999389648438 h8.2 c0,0 0.1,-21.6 0.1,-22.9 c1.1,-0.4 3.8,-1.2 6.4,-1.2 c1.3,0 2.2,0.2 2.7,0.8 c0.8,0.8 0.8,2.4 0.8,4.2 l0,19.1 h8.3 v-19.5 c0,-4.5 -0.2,-6 -1.6,-7.9 C109.9000030517578,101.39999389648438 107.4000030517578,100.39999389648438 104.20000305175782,100.39999389648438 " id="svg_7"/>
	<path class="st1" d="M158.3000030517578,100.39999389648438 c-9.2,0 -14.9,6 -14.9,15.6 c0,9.7 5.6,15.5 14.9,15.5 c9.2,0 14.9,-6 14.9,-15.6 C173.20000305175782,106.19999389648439 167.60000305175782,100.39999389648438 158.3000030517578,100.39999389648438 M158.3000030517578,126.09999389648436 c-2.7,0 -6.2,-1 -6.2,-10.1 c0,-8.9 3.2,-10.1 6.3,-10.1 c2.7,0 6.2,1.1 6.2,10.1 C164.5000030517578,124.89999389648438 161.4000030517578,126.09999389648436 158.3000030517578,126.09999389648436 " id="svg_8"/>
	<path class="st1" d="M374.1000030517578,100.39999389648438 c-9.2,0 -14.9,6 -14.9,15.6 c0,9.7 5.6,15.5 14.9,15.5 c9.2,0 14.9,-6 14.9,-15.6 C389.0000030517578,106.19999389648439 383.40000305175784,100.39999389648438 374.1000030517578,100.39999389648438 M374.1000030517578,126.09999389648436 c-2.7,0 -6.2,-1 -6.2,-10.1 c0,-8.9 3.2,-10.1 6.3,-10.1 c2.7,0 6.2,1.1 6.2,10.1 C380.3000030517578,124.89999389648438 377.2000030517578,126.09999389648436 374.1000030517578,126.09999389648436 " id="svg_9"/>
	<path class="st1" d="M408.8000030517578,125.19999389648439 l-5.8,0.9 c-1.3,0 -1.7000000000000002,-0.30000000000000016 -1.9,-0.7000000000000003 c-0.2,-0.30000000000000016 -0.2,-0.5 -0.2,-2.8 c0,-0.30000000000000016 0,-14.5 0,-16.2 h8.2 v-5.1 h-8.2 v-7.9 l-1,0.1 l-7.3,0.6000000000000003 v28.3 c0,3.1 0.30000000000000016,5.2 1.6,6.7 c1.2,1.5 3.2,2.3 6.1,2.3 c2.6,0 5.6,-0.7000000000000003 8.9,-2 l0.8,-0.30000000000000016 L408.8000030517578,125.19999389648439 z" id="svg_10"/>
	<path class="st1" d="M309.3000030517578,100.39999389648438 c-9.2,0 -14.9,6 -14.9,15.6 c0,9.7 5.6,15.5 14.9,15.5 c9.2,0 14.9,-6 14.9,-15.6 C324.2000030517578,106.19999389648439 318.6000030517578,100.39999389648438 309.3000030517578,100.39999389648438 M309.3000030517578,126.09999389648436 c-2.7,0 -6.2,-1 -6.2,-10.1 c0,-8.9 3.2,-10.1 6.3,-10.1 c2.7,0 6.2,1.1 6.2,10.1 C315.5000030517578,124.89999389648438 312.40000305175784,126.09999389648436 309.3000030517578,126.09999389648436 " id="svg_11"/>
	<path class="st1" d="M347.6000030517578,102.79999389648435 c-1.9,-1.1 -4.2,-1.6 -6.5,-1.6 c-8.2,0 -14.1,6.6 -14.1,15.8 c0,8.8 4.6,14.4 12.1,14.4 c1.9,0 3.8,-0.5 8.2,-2.3 v2.4 c0,5.1 -1.9,6.6 -8.3,6.6 c-2.9,0 -6.8,-0.4 -9.9,-1.2 v5 c6.2,1.4 8.7,1.7000000000000002 11.9,1.7000000000000002 c4,0 7.4,-0.7000000000000003 9.9,-2 c3.6,-1.9 4.9,-4.6 4.9,-9.8 v-30.2 h-8.2 V102.79999389648435 zM347.3000030517578,124.89999389648438 c-1.5,0.2 -2.5,0.30000000000000016 -3.8,0.30000000000000016 c-5,0 -7.7,-3.2 -7.7,-9.2 c0,-6.2 3.1,-9.7 8.5,-9.7 c1,0 1.7000000000000002,0.1 3.1,0.30000000000000016 V124.89999389648438 z" id="svg_12"/>
	<path class="st1" d="M77.9000030517578,101.69999389648439 h-8.1 v1.2 c-1.9,-1.1 -4.1,-1.6 -6.3,-1.6 c-8.1,0 -13.8,6.5 -13.8,15.7 c0,8.8 4.5,14.3 11.8,14.3 c1.9,0 4.3,-0.9 8.1,-3 v2.7 l0.2,0 L81.30000305175781,129.89999389648438 v-4.9 h-3.4 V101.69999389648439 zM69.9000030517578,125.09999389648436 c-1.5,0.2 -2.5,0.30000000000000016 -3.9,0.30000000000000016 c-5.1,0 -7.9,-3.3 -7.9,-9.3 c0,-6.2 3.2,-9.9 8.7,-9.9 c1,0 1.8,0.1 3.1,0.30000000000000016 V125.09999389648436 z" id="svg_13"/>
	<path class="st1" d="M439.40000305175784,101.69999389648439 H431.3000030517578 v1.2 c-1.9,-1.1 -4.1,-1.6 -6.3,-1.6 c-8.1,0 -13.8,6.5 -13.8,15.7 c0,8.8 4.6,14.3 11.8,14.3 c1.9,0 4.3,-0.9 8.1,-3 v2.7 l11.7,-1.2 v-4.9 h-3.3 V101.69999389648439 zM431.3000030517578,125.09999389648436 c-1.5,0.2 -2.5,0.30000000000000016 -3.9,0.30000000000000016 c-5.1,0 -7.9,-3.3 -7.9,-9.3 c0,-6.2 3.1,-9.9 8.7,-9.9 c1,0 1.8,0.1 3.1,0.30000000000000016 V125.09999389648436 z" id="svg_14"/>
	<polygon class="st1" points="435.59997940063477,94.29998779296875 433.59997940063477,88 432.799991607666,88.29998779296875 419.89999771118164,93.60000610351562 421.00000381469727,97.29998779296875 " id="svg_15"/>
	<path class="st1" d="M212.8000030517578,87.39999389648438 l-0.4,0 l-1,0.1 L200.5000030517578,88.89999389648438 v3.7 h4 v9.6 c-3.2,-1.1 -7.8,-2 -11.9,-0.6000000000000003 c-5.7,1.9 -8.9,7.1 -9.1,14.5 c-0.2,6.8 3.3,12.3 8.9,14.1 c4.1,1.3 9.5,-0.2 12.5,-1.6 c0,0.6000000000000003 0.1,2.4 0.1,2.4 l11,-1.5 V125.89999389648438 h-3.5 C212.5000030517578,125.19999389648439 212.8000030517578,87.39999389648438 212.8000030517578,87.39999389648438 M204.60000305175782,124.89999389648438 c-3.7,1 -7.8,1.8 -10.5,-1.5 c-1.5,-1.9 -1.9,-4.7 -1.9,-7.5 c0,-0.30000000000000016 0,-0.7000000000000003 0,-1 c0.1,-3.1 0.9,-5.2 2.5,-7 c2.6,-2.9 6.9,-2.3 10.1,-0.8 C204.8000030517578,107.19999389648439 204.60000305175782,124.29999389648435 204.60000305175782,124.89999389648438 " id="svg_16"/>
	<path class="st1" d="M232.5000030517578,100.39999389648438 c-1.9,-0.1 -3.6,0.2 -5.3,0.7000000000000003 c-6.1,2 -9.5,7.3 -9.7,15 c-0.2,7 3.5,12.7 9.5,14.6 c5.2,1.7000000000000002 12.9,-0.1 17.7,-2.8 l0.30000000000000016,-0.1 l-1.4,-4.2 l-2.7,0.9 c-3.9,1.1 -9,3.1 -12.2,-0.7000000000000003 c-1.7000000000000002,-2 -2,-5.1 -2,-7.5 l16.1,0.30000000000000016 h2.4 l0,-0.4 c0.1,-0.7000000000000003 0.1,-1.4 0.1,-2.1 C245.2000030517578,100.09999389648436 233.0000030517578,100.39999389648438 232.5000030517578,100.39999389648438 M226.90000305175784,111.9999938964844 c0.1,-0.5 0.30000000000000016,-6.5 5.7,-6.5 c5.5,0 5.5,5.9 5.6,6.5 H226.90000305175784 z" id="svg_17"/>
</g><g id="svg_18" class="">
	<defs transform="translate(-0.6181297302246094,-0.0941619873046875) translate(-29.239765167236328,-128.65496826171875) translate(163.15789794921875,-40.35087585449219) ">
		<path id="SVGID_3_" d="M386.2,226.7c-29.4,0.5-53.8,21.1-54.8,49.3c-1.1,28.2,21,52,49.2,53.1c14.4,0.5,27.6-4.9,37.3-14.1    c9.3-8.9,8.9-24.5,1.5-17.4c-8.1,7.8-19.5,12.4-31.9,12c-23.6-0.9-42.1-19.9-41.2-42.6c0.8-21.1,21.7-37.7,40.4-38.7l0.5-1.5    C386.8,226.7,386.6,226.7,386.2,226.7"/>
	</defs>
	<clipPath id="SVGID_4_" transform="translate(-0.6181297302246094,-0.0941619873046875) translate(-29.239765167236328,-128.65496826171875) translate(163.15789794921875,-40.35087585449219) ">
		<use xlink:href="#SVGID_3_" style="overflow:visible;" id="svg_19"/>
	</clipPath>
	
		<linearGradient id="SVGID_5_" gradientUnits="userSpaceOnUse" x1="-92.30760192871094" y1="685.8762817382812" x2="-83.84089660644531" y2="685.8762817382812" gradientTransform="matrix(11.0502 0 0 -11.0502 1351.3568 7857.2925)" transform="translate(-0.6181297302246094,-0.0941619873046875) translate(-29.239765167236328,-128.65496826171875) translate(163.15789794921875,-40.35087585449219) ">
		<stop offset="0" style="stop-color:#E74D4A"/>
		<stop offset="0.6575" style="stop-color:#B7362C"/>
		<stop offset="1" style="stop-color:#A32C1F"/>
	</linearGradient>
	<rect x="463.5999755859375" y="57.59999084472656" class="st2" width="96.9000015258789" height="102.9000015258789" id="svg_20"/>
</g><g id="svg_21" class="">
	<defs transform="translate(-0.6181297302246094,-0.0941619873046875) translate(-29.239765167236328,-128.65496826171875) translate(163.15789794921875,-40.35087585449219) ">
		<rect id="SVGID_6_" x="-133.3000030517578" y="169.10000610351562" width="600" height="213.3000030517578"/>
	</defs>
	<clipPath id="SVGID_7_" transform="translate(-0.6181297302246094,-0.0941619873046875) translate(-29.239765167236328,-128.65496826171875) translate(163.15789794921875,-40.35087585449219) ">
		<use xlink:href="#SVGID_6_" style="overflow:visible;" id="svg_22"/>
	</clipPath>
	<path class="st3" d="M523.6000030517578,59.099993896484364 c23.8,1.4 43.3,21.7 -25.8,41.9 c17.6,3.5 30.6,11.7 30.6,11.7 c59.2,-30.1 25.5,-55.2 -8,-55.1 l-0.5,1.5 C521.2000030517578,59.099993896484364 522.4000030517578,59.099993896484364 523.6000030517578,59.099993896484364 " id="svg_23"/>
</g><g id="svg_24" class="">
	<defs transform="translate(-0.6181297302246094,-0.0941619873046875) translate(-29.239765167236328,-128.65496826171875) translate(163.15789794921875,-40.35087585449219) ">
		<path id="SVGID_8_" d="M364,270.1c15.7,1.9,48.6,19.6,51.6,36.5c0-0.3-1-7-1-7c-2.4-15.9,1-31.3,25.3-32.6    c-11.7-5.6-22-7.6-31.3-7.6C389.9,259.5,375.6,267.6,364,270.1"/>
	</defs>
	<clipPath id="SVGID_9_" transform="translate(-0.6181297302246094,-0.0941619873046875) translate(-29.239765167236328,-128.65496826171875) translate(163.15789794921875,-40.35087585449219) ">
		<use xlink:href="#SVGID_8_" style="overflow:visible;" id="svg_25"/>
	</clipPath>
	
		<linearGradient id="SVGID_10_" gradientUnits="userSpaceOnUse" x1="-155.5406036376953" y1="627.8499145507812" x2="-147.07470703125" y2="627.8499145507812" gradientTransform="matrix(0 -5.5645 -5.5645 0 3895.6882 -558.9091)" transform="translate(-0.6181297302246094,-0.0941619873046875) translate(-29.239765167236328,-128.65496826171875) translate(163.15789794921875,-40.35087585449219) ">
		<stop offset="0" style="stop-color:#FBD200"/>
		<stop offset="0.7528" style="stop-color:#FBD200"/>
		<stop offset="0.811" style="stop-color:#F9D004"/>
		<stop offset="0.867" style="stop-color:#F3CA0F"/>
		<stop offset="0.9222" style="stop-color:#EABF23"/>
		<stop offset="0.9765" style="stop-color:#DDB13E"/>
		<stop offset="1" style="stop-color:#D6A94C"/>
	</linearGradient>
	<rect x="497.29998779296875" y="90.39999389648438" class="st4" width="75.9000015258789" height="47.099998474121094" id="svg_26"/>
</g><g id="svg_27" class="">
	<defs transform="translate(-0.6181297302246094,-0.0941619873046875) translate(-29.239765167236328,-128.65496826171875) translate(163.15789794921875,-40.35087585449219) ">
		<path id="SVGID_11_" d="M415.3,305.1c0.3,0.8,1.8,7.1-1.7,13.6c-4.3,7.4-11.3,12.9-24.8,16.5c34.5,1.6,74.1-31.6,38.5-63.5    C412.4,277.9,413.9,295.1,415.3,305.1"/>
	</defs>
	<clipPath id="SVGID_12_" transform="translate(-0.6181297302246094,-0.0941619873046875) translate(-29.239765167236328,-128.65496826171875) translate(163.15789794921875,-40.35087585449219) ">
		<use xlink:href="#SVGID_11_" style="overflow:visible;" id="svg_28"/>
	</clipPath>
	
		<linearGradient id="SVGID_13_" gradientUnits="userSpaceOnUse" x1="-220.23080444335938" y1="661.4807739257812" x2="-211.76409912109375" y2="661.4807739257812" gradientTransform="matrix(-3.1871 -3.1871 -3.1871 3.1871 1842.5099 -2495.4932)" transform="translate(-0.6181297302246094,-0.0941619873046875) translate(-29.239765167236328,-128.65496826171875) translate(163.15789794921875,-40.35087585449219) ">
		<stop offset="0" style="stop-color:#FBD200"/>
		<stop offset="5.145997e-002" style="stop-color:#F8CF05"/>
		<stop offset="0.4641" style="stop-color:#E6BA2C"/>
		<stop offset="0.7947" style="stop-color:#DAAE43"/>
		<stop offset="1" style="stop-color:#D6A94C"/>
	</linearGradient>
	<polygon class="st5" points="559.1999855041504,204.8000030517578 489.59997940063477,135.1999969482422 559.1999855041504,65.59999084472656 628.8000221252441,135.1999969482422 " id="svg_29"/>
</g></g></svg>